<?xml version="1.0" standalone="no"?>
<!DOCTYPE svg PUBLIC "-//W3C//DTD SVG 20010904//EN"
 "http://www.w3.org/TR/2001/REC-SVG-20010904/DTD/svg10.dtd">
<svg version="1.0" xmlns="http://www.w3.org/2000/svg"
 width="260.000000pt" height="260.000000pt" viewBox="0 0 260.000000 260.000000"
 preserveAspectRatio="xMidYMid meet">
<metadata>
Created by potrace 1.14, written by Peter Selinger 2001-2017
</metadata>
<g transform="translate(0.000000,260.000000) scale(0.100000,-0.100000)"
fill="#000000" stroke="none">
<path d="M1743 2319 c-24 -151 -135 -306 -297 -414 -45 -30 -172 -101 -282
-158 -259 -134 -331 -182 -434 -286 -119 -121 -190 -250 -224 -409 -18 -85
-14 -286 8 -361 17 -61 31 -82 31 -45 0 13 -4 24 -8 24 -5 0 -5 5 -1 12 4 6 9
30 10 52 2 23 6 57 10 76 3 19 8 46 10 60 25 140 125 327 235 439 93 93 158
137 429 285 140 76 162 90 247 153 199 149 310 344 299 528 -2 39 -8 80 -13
93 -7 18 -11 9 -20 -49z"/>
<path d="M1870 2080 c-1 -110 -69 -252 -169 -350 -89 -87 -174 -142 -398 -256
-363 -186 -501 -302 -605 -509 -26 -51 -63 -162 -74 -219 -19 -104 -2 -337 27
-372 5 -6 6 -14 2 -17 -3 -4 -2 -7 4 -7 7 0 11 28 12 70 3 184 78 390 199 541
95 120 161 169 423 315 238 132 331 195 419 285 136 138 190 260 187 419 -1
53 -8 104 -14 115 -11 18 -12 17 -13 -15z"/>
<path d="M1912 1540 c-4 -77 -33 -191 -72 -279 -17 -39 -33 -84 -36 -101 -8
-38 16 -104 68 -186 21 -34 38 -68 38 -76 0 -9 -21 -21 -54 -31 -68 -22 -83
-38 -67 -73 18 -40 13 -52 -25 -66 -31 -11 -33 -14 -18 -25 20 -15 12 -43 -13
-43 -31 0 -41 -14 -48 -60 -9 -68 -34 -96 -81 -92 -43 3 -133 41 -207 85 -126
77 -242 75 -352 -4 -63 -45 -56 -53 13 -16 50 28 67 32 134 32 75 0 80 -2 196
-63 142 -73 223 -96 270 -77 38 17 59 48 68 102 5 34 12 44 34 52 30 10 53 42
48 65 -2 7 8 23 22 34 23 19 24 23 14 61 -6 23 -9 40 -7 37 8 -7 85 23 105 41
26 24 22 62 -13 113 -43 64 -79 136 -81 162 -1 13 13 56 31 97 42 94 58 175
55 274 -3 96 -18 120 -22 37z"/>
<path d="M1595 1188 c10 -32 25 -49 55 -60 14 -5 26 -9 27 -9 2 0 16 -4 32 -9
17 -5 39 -6 49 -3 17 4 16 7 -9 33 -21 20 -36 27 -59 25 -19 -2 -44 6 -66 21
l-35 24 6 -22z"/>
</g>
</svg>
